<svg width="24" height="24" xmlns="http://www.w3.org/2000/svg" xmlns:xlink="http://www.w3.org/1999/xlink" xml:space="preserve" overflow="hidden"><defs><clipPath id="clip0"><rect x="512" y="602" width="24" height="24"/></clipPath></defs><g clip-path="url(#clip0)" transform="translate(-512 -602)"><path d="M516.459 606.208C517.205 606.814 517.485 606.768 518.887 606.674L532.102 605.881C532.382 605.881 532.149 605.601 532.056 605.555L529.86 603.968C529.44 603.642 528.879 603.268 527.805 603.361L515.01 604.295C514.544 604.341 514.45 604.575 514.636 604.761ZM517.252 609.288 517.252 623.192C517.252 623.939 517.625 624.219 518.466 624.172L532.989 623.332C533.83 623.286 533.924 622.772 533.924 622.165L533.924 608.354C533.924 607.748 533.691 607.421 533.176 607.467L517.999 608.354C517.439 608.401 517.252 608.681 517.252 609.287ZM531.589 610.033C531.682 610.453 531.589 610.873 531.169 610.921L530.469 611.061 530.469 621.325C529.861 621.652 529.301 621.839 528.834 621.839 528.086 621.839 527.899 621.605 527.339 620.906L522.762 613.72 522.762 620.672 524.21 621C524.21 621 524.21 621.84 523.042 621.84L519.82 622.026C519.727 621.84 519.82 621.373 520.147 621.28L520.987 621.047 520.987 611.854 519.822 611.76C519.728 611.34 519.962 610.734 520.615 610.687L524.071 610.454 528.835 617.733 528.835 611.293 527.62 611.154C527.527 610.64 527.9 610.267 528.367 610.221ZM513.936 603.035 527.246 602.055C528.88 601.915 529.301 602.008 530.328 602.755L534.577 605.741C535.277 606.254 535.511 606.394 535.511 606.954L535.511 623.332C535.511 624.358 535.138 624.966 533.831 625.058L518.373 625.992C517.393 626.039 516.925 625.899 516.411 625.245L513.282 621.185C512.722 620.438 512.489 619.879 512.489 619.225L512.489 604.667C512.489 603.828 512.863 603.127 513.936 603.035Z" fill="#FFFFFF"/></g></svg>