<svg width="1493" height="1493" xmlns="http://www.w3.org/2000/svg" xmlns:xlink="http://www.w3.org/1999/xlink" xml:space="preserve" overflow="hidden"><defs><clipPath id="clip0"><rect x="1453" y="487" width="1493" height="1493"/></clipPath></defs><g clip-path="url(#clip0)" transform="translate(-1453 -487)"><path d="M1165.54 571.695C1159.03 569.712 1158.85 554.642 1158.85 515.408 1158.85 483.791 1160.23 458.132 1161.6 458.132 1162.98 458.132 1171.22 461.339 1179.47 465.463 1219.79 484.25 1223 540.609 1185.43 563.519 1175.63 569.362 1169.45 572.884 1165.54 571.695ZM327.446 571.695C323.54 572.884 317.354 569.362 307.561 563.519 269.532 540.151 273.655 481.5 314.433 464.547 322.68 460.881 330.469 458.132 331.844 458.132 333.218 458.132 334.135 483.791 334.135 515.408 334.135 554.642 333.956 569.712 327.446 571.695ZM436.308 682.653 423.479 672.573C398.738 653.328 398.279 648.288 398.279 448.051 398.279 244.607 398.279 243.691 427.145 222.614 439.974 212.991 445.014 212.991 740.996 211.617 1020.94 210.7 1042.93 211.158 1057.6 218.49 1066.3 223.072 1077.76 232.694 1082.8 239.567 1091.96 251.939 1092.42 258.812 1093.79 438.887 1094.71 562.603 1093.79 630.876 1090.13 642.331 1087.38 651.495 1079.13 664.325 1071.34 670.74L1057.14 682.653 746.952 682.653ZM745.52 1122.13C722.554 1122.19 699.76 1120.01 683.723 1115.66 608.124 1095.04 543.521 1034.1 516.947 957.577 508.242 931.918 506.409 915.881 504.576 839.818L502.744 751.384 746.035 751.384 989.327 751.384 989.327 821.49C989.327 911.757 984.287 941.998 961.837 987.361 931.597 1050.14 873.409 1098.71 808.347 1115.2 791.624 1119.78 768.486 1122.07 745.52 1122.13ZM746.494 1397C739.736 1397 732.977 1393.33 725.876 1386 704.8 1365.38 717.17 1333.31 746.494 1333.31 775.817 1333.31 788.188 1365.38 767.112 1386 760.01 1393.33 753.252 1397 746.494 1397ZM747.525 1460.97C761.041 1460.69 774.672 1457.94 785.897 1452.9 808.806 1442.36 837.213 1410.29 840.878 1389.67 849.125 1345.22 831.256 1301.69 796.893 1281.99L778.566 1271.45 778.566 1230.21 778.566 1188.51 807.431 1182.56C901.357 1163.31 977.415 1103.75 1021.86 1014.85 1047.52 963.076 1053.47 929.627 1053.47 831.57L1053.47 748.635 1075.01 742.678C1104.79 733.514 1142.36 696.858 1149.69 668.907 1152.9 657.452 1156.1 645.539 1157.02 642.789 1157.94 639.582 1164.35 636.833 1171.68 636.833 1202.84 636.833 1254.15 598.343 1265.15 567.185 1267.44 560.312 1271.56 554.355 1273.85 554.355 1282.56 554.355 1312.34 571.767 1321.96 582.764 1345.79 608.882 1349 620.795 1350.37 701.44L1352.2 777.044 1328.84 791.706C1273.85 825.614 1255.07 903.509 1299.05 914.506 1319.67 919.546 1332.04 909.924 1339.83 881.973 1348.54 852.648 1362.28 841.193 1386.57 841.651 1407.64 842.109 1424.14 858.147 1427.8 881.057 1432.84 913.59 1461.25 926.878 1482.78 906.258 1509.36 881.057 1480.95 811.868 1433.76 788.041L1415.89 778.877 1414.52 695.483C1413.14 614.839 1412.68 610.715 1400.31 584.139 1393.44 569.018 1378.78 547.482 1368.24 536.943 1348.08 516.324 1303.18 490.206 1287.6 490.206 1281.19 490.206 1274.31 481.959 1263.77 462.714 1255.53 447.135 1241.32 428.807 1231.7 421.017 1214.29 407.271 1182.68 393.983 1167.56 393.983 1159.31 393.983 1158.85 389.401 1158.85 324.335 1158.85 285.846 1156.56 246.898 1154.27 238.193 1142.36 194.663 1104.79 159.839 1059.89 150.217L1039.73 145.635 1039.73 49.8695 1039.73 0 971 0 971 64.0739 971 146.551 948.091 146.551 925.182 146.551 925.182 64.0739 925.182 0 861.038 0 861.038 50.3277 861.038 146.551 746.494 146.551 631.95 146.551 631.95 50.3277 631.95 0 567.805 0 567.805 64.0739 567.805 146.551 544.896 146.551 521.987 146.551 521.987 64.0739 521.987 0 453.261 0 453.261 50.3277 453.261 146.551 440.89 149.3C394.156 159.381 369.414 176.335 350.171 211.158 336.426 235.443 336.426 237.276 335.051 313.797L333.218 392.15 310.31 397.649C276.863 405.438 247.998 427.89 231.503 459.506 221.423 477.835 213.634 486.541 205.845 488.832 160.028 500.287 113.752 539.693 92.2176 585.513 80.305 610.257 79.8468 615.755 78.4723 695.483L77.0978 778.877 59.2289 788.041C12.0367 811.868-15.9121 878.766 9.74581 905.8 21.6584 918.63 42.2763 919.546 53.7308 908.091 58.7707 903.051 63.8106 891.137 65.1852 880.599 69.3088 856.772 85.8031 843.026 110.545 843.026 130.704 843.026 150.864 859.063 150.864 875.1 150.864 888.388 162.777 909.924 171.482 913.59 199.431 924.128 222.34 903.509 217.758 871.435 212.718 834.778 190.267 803.62 154.988 785.292L141.701 778.418 141.701 706.48C141.701 644.164 143.075 631.792 151.322 613.922 162.777 588.263 175.606 574.516 197.598 563.061 219.591 552.064 222.798 552.064 226.005 564.894 232.878 593.303 290.15 636.833 320.848 636.833 332.302 636.833 334.135 639.582 341.007 662.492 345.589 678.988 354.753 694.567 366.207 707.396 383.618 726.183 417.523 746.802 431.726 746.802 437.683 746.802 439.057 760.548 440.432 844.4 442.264 936.042 443.181 943.373 455.093 978.197 491.289 1082.67 573.303 1157.36 679.142 1180.72L714.421 1188.97 714.421 1230.21 714.421 1271.45 696.094 1281.99C668.604 1297.57 653.484 1323.68 651.193 1358.05 649.818 1380.5 651.193 1390.58 658.524 1404.79 669.978 1426.78 688.763 1445.11 709.839 1454.27 720.607 1459.08 734.009 1461.26 747.525 1460.97Z" fill-rule="evenodd" transform="matrix(1 0 0 -1 1453 1948)"/><path d="M17.745 76.1457C-0.240754 60.9646-5.31365 42.1032 4.37097 23.2418 25.5849-17.2411 85.5373-3.44011 85.5373 41.6432 85.5373 64.1848 70.3186 82.1261 48.1823 85.3464 35.2695 87.6466 29.2743 85.8064 17.745 76.1457Z" fill-rule="evenodd" transform="matrix(1 0 0 -1 2050 1023)"/><path d="M25.6019 81.8055C-16.0592 64.0161-5.52946-0.755682 39.3364-0.755682 81.4553-0.755682 101.141 45.7705 70.4678 73.1388 59.4802 83.1739 37.9629 87.2792 25.6019 81.8055Z" fill-rule="evenodd" transform="matrix(1 0 0 -1 2263 1022)"/><path d="M11.6666 55.792C-3.47625 43.9575-4.85288 20.7437 9.37226 7.99885 18.0909 0.260918 26.8095-0.649427 96.0998-0.649427 165.39-0.649427 174.109 0.260918 182.827 7.99885 188.793 13.4609 192.464 22.1092 192.464 30.7575 192.464 61.254 180.992 65.3506 94.7231 65.3506 30.0217 65.3506 22.6797 64.4402 11.6666 55.792Z" fill-rule="evenodd" transform="matrix(1 0 0 -1 2103 1134)"/><path d="M55.7004 296.379C34.5831 285.865 9.79309 257.065 4.2842 236.494-2.14283 214.095-2.14283 91.5832 4.2842 69.1836 7.03865 59.5839 16.6792 43.5842 25.4016 33.5273 57.5367-1.67195 46.978-0.300556 265.497-0.300556 479.425-0.300556 472.08-1.21482 501.461 27.5846 528.087 54.5554 529.464 60.9553 529.464 152.839 529.464 223.695 528.087 239.694 521.66 251.58 512.479 268.494 484.934 293.636 468.867 299.579 462.44 301.864 372.92 303.693 264.12 303.693 96.0989 303.693 68.5545 302.321 55.7004 296.379ZM454.635 231.923C461.981 225.523 462.899 216.38 462.899 153.753 462.899 93.8688 461.521 81.5262 455.094 74.2121 448.208 66.4408 436.272 65.9837 265.497 65.9837 85.9993 65.9837 83.2449 65.9837 74.5225 75.5835 66.7182 84.269 65.8001 92.9546 65.8001 152.839 65.8001 212.723 66.7182 221.409 74.5225 230.094 83.2449 239.694 85.9993 239.694 264.579 239.694 427.091 239.694 446.831 238.78 454.635 231.923Z" fill-rule="evenodd" transform="matrix(1 0 0 -1 1934 1652)"/><path d="M9.68653 55.4625C-3.1413 44.9483-4.05758 22.0911 7.85398 8.83401 15.6423 0.148301 21.5981-0.308841 122.388-0.308841 219.055-0.308841 230.05 0.605444 239.213 7.91972 252.957 19.3483 252.957 44.4911 238.755 55.4625 230.05 62.7768 217.223 63.6911 124.679 63.6911 30.3027 63.6911 19.3074 62.7768 9.68653 55.4625Z" fill-rule="evenodd" transform="matrix(1 0 0 -1 2075 1531)"/><rect x="1906" y="1781" width="68.9998" height="199"/><rect x="2019" y="1781" width="69.0001" height="199"/><rect x="2312" y="1781" width="69" height="199"/><rect x="2424" y="1781" width="69.9998" height="199"/></g></svg>